<svg width="733" height="615" viewBox="0 0 733 615" fill="none" xmlns="http://www.w3.org/2000/svg">
    <path
        d="M468.961 49.0568C467.338 49.3987 458.794 28.9726 452.985 14.3581L433.334 17.093L418.041 29.9982H391.299L369.684 17.093H325.086L286.298 43.3307H260.154L233.413 17.093H220.683L193.941 29.9982H182.493L159.596 5.12789H143.021L114.998 0L57.6697 10.1703V43.3307L38.5319 49.3132L48.6988 101.96H32.1241V116.147L43.6581 124.266L47.2464 140.162L39.728 150.162V163.751L47.2464 168.708L39.728 181.015H24.0931V198.449L19.6504 205.629H6.15143L0 267.932V273.06L4.35726 288.102L5.63881 328.1L43.4872 325.878L85.0948 333.484L114.827 375.105L119.953 402.283L143.704 421H158.997L172.582 410.83L184.458 408.266C184.458 408.266 225.211 410.83 227.774 410.83C230.337 410.83 244.776 406.556 244.776 406.556L246.655 407.069C253.661 393.566 261.265 378.609 262.632 375.96C265.195 370.832 260.069 365.79 257.506 356.816C254.943 347.928 275.362 328.783 275.362 328.783L314.834 306.05H333.972L341.575 316.049L355.587 328.783H361.995L385.746 299.469L391.299 288.017V272.718L416.247 253.574L416.845 247.164C416.845 247.164 415.563 236.994 416.845 235.798C418.127 234.601 423.253 230.584 430.857 228.02C438.46 225.456 430.857 210.158 430.857 205.458C430.857 200.757 447.431 188.963 447.431 188.963L466.569 121.018L481.862 113.412L501 101.96V70.6795L485.707 65.0388C485.707 65.0388 471.695 48.4586 469.132 48.9714L468.961 49.0568Z"
        fill="#23495E" />
</svg>