<svg xmlns="http://www.w3.org/2000/svg" width="62" height="73" viewBox="0 0 62 73" fill="none">
  <path d="M7.75 0C3.46167 0 0 3.46167 0 7.75V64.5833C0 68.8717 3.46167 72.3333 7.75 72.3333H54.25C58.5383 72.3333 62 68.8717 62 64.5833V25.8333C62 25.1617 61.7417 24.49 61.225 24.025L37.975 0.775C37.51 0.258333 36.8383 0 36.1667 0H7.75Z" fill="#85DBB2"/>
  <path d="M61.9994 25.8333C61.9994 25.1617 61.741 24.49 61.2244 24.025L37.9743 0.775C37.5093 0.258333 36.8377 0 36.166 0V23.25C36.166 24.6967 37.3027 25.8333 38.7493 25.8333H61.9994Z" fill="#204458"/>
  <path d="M16.6379 53.1653L14.7262 55.077L12.8145 53.1653C11.7295 52.0803 9.92121 52.0803 8.83621 53.1653C7.75121 54.2503 7.75121 56.0586 8.83621 57.1436L10.7479 59.0553L8.83621 60.967C7.75121 62.052 7.75121 63.8603 8.83621 64.9453C9.92121 66.0303 11.7295 66.0303 12.8145 64.9453L14.7262 63.0336L16.6379 64.9453C17.7229 66.0303 19.5312 66.0303 20.6162 64.9453C21.7012 63.8603 21.7012 62.052 20.6162 60.967L18.7045 59.0553L20.6162 57.1436C21.7012 56.0586 21.7012 54.2503 20.6162 53.1653C19.5312 52.0803 17.7229 52.0803 16.6379 53.1653Z" fill="#204458"/>
</svg>