<svg xmlns="http://www.w3.org/2000/svg" width="56" height="78" viewBox="0 0 56 78" fill="none">
    <path d="M9.05566 8.28431C9.05566 3.70033 12.756 0 17.34 0H47.7158C52.2998 0 56.0001 3.70033 56.0001 8.28431V55.2287C56.0001 59.8127 52.2998 63.5131 47.7158 63.5131H17.34C12.756 63.5131 9.05566 59.8127 9.05566 55.2287V8.28431Z" fill="#204458"/>
    <path d="M38.6601 13.8071H8.28431C3.70033 13.8071 0 17.5075 0 22.0914V69.0359C0 73.6199 3.70033 77.3202 8.28431 77.3202H38.6601C43.2441 77.3202 46.9444 73.6199 46.9444 69.0359V22.0914C46.9444 17.5075 43.2441 13.8071 38.6601 13.8071ZM23.4722 58.6529H12.4265C10.4935 58.6529 9.00228 57.1065 9.00228 55.2287C9.00228 53.3509 10.5487 51.8045 12.4265 51.8045H23.4722C25.4052 51.8045 26.8964 53.3509 26.8964 55.2287C26.8964 57.1065 25.35 58.6529 23.4722 58.6529ZM34.518 44.8457H12.4265C10.4935 44.8457 9.00228 43.2993 9.00228 41.4215C9.00228 39.5437 10.5487 37.9973 12.4265 37.9973H34.518C36.451 37.9973 37.9421 39.5437 37.9421 41.4215C37.9421 43.2993 36.3957 44.8457 34.518 44.8457ZM34.518 31.0385H12.4265C10.4935 31.0385 9.00228 29.4921 9.00228 27.6143C9.00228 25.7365 10.5487 24.1901 12.4265 24.1901H34.518C36.451 24.1901 37.9421 25.7365 37.9421 27.6143C37.9421 29.4921 36.3957 31.0385 34.518 31.0385Z" fill="#85DBB2"/>
</svg>