<svg xmlns="http://www.w3.org/2000/svg" width="132" height="39" viewBox="0 0 132 39" fill="none">
    <path d="M3.92405 17.2598C3.85079 18.0656 3.9973 18.8531 4.14381 19.6406C4.16213 19.7688 4.23538 19.897 4.27201 20.0435C4.30864 20.2084 4.38189 20.3915 4.38189 20.5563C4.36358 20.9592 4.54672 21.3072 4.71154 21.6552C4.7848 21.82 4.83974 21.9848 4.89468 22.1313C4.98625 22.3694 5.09613 22.5892 5.1877 22.8273C5.26096 22.9921 5.3159 23.1935 5.40747 23.34C5.62724 23.7246 5.88363 24.0909 6.12171 24.4572C6.34148 24.7868 6.54293 25.1165 6.78101 25.4278C7.22055 25.9589 7.60514 26.5267 8.19118 26.9113C8.52083 27.131 8.79554 27.424 9.10688 27.6621C9.72955 28.1383 10.3889 28.5229 11.0848 28.8892C11.799 29.2737 12.5682 29.5485 13.3557 29.7865C13.4473 29.8048 13.5572 29.7682 13.667 29.7499C13.722 29.7499 13.8319 29.7499 13.8502 29.7865C13.9784 29.988 14.1615 29.9514 14.3447 29.9514C14.4179 29.9514 14.5095 29.9697 14.5827 30.0246C14.6926 30.1162 15.0772 30.1894 15.1871 30.1162C15.4069 29.9697 15.6083 30.0063 15.8098 30.1894C15.883 30.2627 16.0112 30.281 16.1211 30.281C16.6705 30.281 17.2382 30.281 17.7877 30.281C17.8426 30.281 17.9342 30.2444 17.9708 30.1894C18.1173 29.988 18.2272 29.988 18.4653 30.1162C18.5568 30.1711 18.685 30.1345 18.7949 30.1345C18.9598 30.1162 19.1795 30.1711 19.2345 29.9147C19.2345 29.8781 19.4176 29.8598 19.4725 29.8964C19.6557 30.0429 19.8022 29.933 19.967 29.8598C20.0403 29.8232 20.1318 29.8232 20.2051 29.8232C20.2784 29.8232 20.3699 29.8415 20.4432 29.8232C21.3406 29.5118 22.2563 29.2371 23.0987 28.761C23.1903 28.706 23.2452 28.6328 23.3185 28.5595C23.3551 28.5229 23.3734 28.4862 23.41 28.4862C24.1609 28.3397 24.6371 27.772 25.2048 27.3508C25.4612 27.1676 25.7176 26.9845 25.9373 26.7647C26.2304 26.49 26.4868 26.1787 26.7615 25.8857C26.8897 25.7392 27.0179 25.5927 27.1278 25.4461C27.3658 25.1348 27.5856 24.8052 27.8054 24.4755C28.0251 24.1459 28.2632 23.8162 28.4464 23.4499C28.6844 22.9738 28.8676 22.4793 29.069 21.9848C29.1606 21.7834 29.2705 21.6185 29.3254 21.4171C29.417 21.1424 29.4536 20.8494 29.5086 20.5746C29.5269 20.4648 29.5635 20.3549 29.6001 20.245C29.8199 19.6773 29.9664 19.1095 29.9664 18.5052C29.9664 18.0656 29.9664 17.6078 29.9664 17.1683C29.9664 16.8203 29.9298 16.4723 29.9115 16.1427C29.8932 15.868 30.0213 15.7031 30.2045 15.5017C30.4059 15.2636 30.5708 15.3002 30.8272 15.3369C31.1751 15.3735 31.5414 15.3002 31.8894 15.2636C31.9443 15.2636 32.0176 15.227 32.0542 15.172C32.219 15.0072 32.3655 14.9889 32.567 15.1171C32.6219 15.1537 32.7135 15.1537 32.7867 15.1537C32.9882 15.1537 33.1897 15.1171 33.3728 15.1354C33.6658 15.1537 33.8123 15.3186 33.8673 15.6299C33.9222 15.9595 33.9955 16.2892 34.0687 16.6188C34.1786 17.1866 34.0504 17.7543 33.9771 18.322C33.9222 18.7799 33.8856 19.2377 33.8856 19.6956C33.8856 20.0802 33.8123 20.4281 33.6658 20.7944C33.5193 21.1057 33.446 21.472 33.4277 21.8017C33.4094 22.0947 33.3362 22.3511 33.208 22.6075C33.0981 22.8456 33.0431 23.102 32.9516 23.34C32.9149 23.4682 32.8417 23.5781 32.7867 23.688C32.6769 23.9627 32.5853 24.2374 32.4937 24.5304C32.4754 24.5854 32.4754 24.6586 32.4571 24.6953C32.2556 25.0066 32.0542 25.3179 31.8711 25.6476C31.6147 26.0322 31.3766 26.4351 31.1202 26.8197C30.8088 27.2775 30.5158 27.7537 30.1495 28.1566C29.6184 28.761 29.0507 29.3287 28.483 29.8964C28.3548 30.0246 28.19 30.1345 28.0434 30.2444C27.494 30.6656 26.9629 31.1051 26.3952 31.508C26.0472 31.7461 25.681 31.9476 25.3147 32.149C24.9484 32.3505 24.6004 32.5702 24.2158 32.7351C23.6481 32.9915 23.0621 33.2295 22.476 33.4676C22.4028 33.5043 22.3478 33.5592 22.2746 33.6141C22.2379 33.6325 22.183 33.6691 22.1281 33.6691C22.0365 33.6691 21.9266 33.6325 21.835 33.6508C21.5054 33.7423 21.1574 33.8522 20.8278 33.9438C20.4798 34.0354 20.1135 34.1086 19.7656 34.1636C19.326 34.2368 18.8865 34.2917 18.447 34.3101C17.7327 34.3467 17.0185 34.3833 16.3042 34.365C15.5717 34.3467 14.8208 34.2734 14.1066 34.1452C13.3923 34.017 12.6964 33.7973 11.9822 33.6141C11.1214 33.4127 10.3339 32.9915 9.50978 32.6435C9.01531 32.442 8.57578 32.149 8.13624 31.856C7.69671 31.563 7.22055 31.2883 6.81764 30.9586C6.14003 30.4092 5.4441 29.8598 4.82143 29.2371C4.43683 28.8525 4.08887 28.4496 3.70428 28.065C3.52114 27.8819 3.39294 27.6438 3.26474 27.424C3.04498 27.0394 2.84353 26.6182 2.60544 26.2336C2.29411 25.7025 1.94614 25.1897 1.63481 24.6586C1.54324 24.5304 1.4883 24.3839 1.43336 24.2191C1.21359 23.6697 1.04876 23.102 0.792369 22.5892C0.51766 22.0398 0.499346 21.4537 0.334521 20.886C-0.0683844 19.5308 0.0598129 18.1389 0.00487125 16.747C-0.0134426 16.0877 0.0231851 15.4284 0.0598129 14.7691C0.0781268 14.5494 0.18801 14.3479 0.224638 14.1465C0.334521 13.652 0.426091 13.1392 0.51766 12.6447C0.535974 12.5532 0.535974 12.4433 0.572602 12.37C0.883938 11.5825 1.15865 10.795 1.52492 10.0442C1.83626 9.40317 2.1476 8.76218 2.60544 8.23108C2.64207 8.17614 2.69701 8.12119 2.71533 8.06625C2.84353 7.62672 3.17318 7.3337 3.41126 6.98573C4.07056 6.0151 4.93131 5.24591 5.75543 4.4401C6.06677 4.12877 6.43305 3.87237 6.78101 3.61598C7.2938 3.2497 7.78828 2.86511 8.33769 2.55377C8.85048 2.24243 9.41821 2.02267 9.94932 1.74796C10.2973 1.58313 10.6269 1.4 10.9566 1.23517C11.0115 1.21686 11.0665 1.21686 11.1214 1.21686C11.213 1.19854 11.2862 1.19854 11.3778 1.18023C11.506 1.1436 11.6159 1.10697 11.7258 1.05203C11.7807 1.0154 11.854 0.978776 11.8723 0.90552C11.9272 0.685754 12.0737 0.740695 12.2202 0.795637C12.2752 0.813951 12.3484 0.850579 12.4034 0.832265C12.5865 0.795637 12.7697 0.759009 12.9528 0.704067C13.8135 0.429359 14.6926 0.301162 15.59 0.209592C15.6999 0.191278 15.8098 0.118023 15.938 0.0813951C16.0478 0.0447673 16.1394 0.00813951 16.2493 0.00813951C16.6888 0.00813951 17.1467 -0.0101744 17.5862 0.00813951C17.6778 0.00813951 17.7877 0.0630812 17.8792 0.099709C17.9525 0.118023 18.0074 0.172965 18.0807 0.172965C18.74 0.264534 19.4176 0.33779 20.0769 0.429359C20.2417 0.447673 20.4066 0.502615 20.5714 0.539243C21.0109 0.649126 21.4688 0.759009 21.9083 0.887206C22.0731 0.942148 22.2013 1.03372 22.3661 0.923834C22.4028 0.90552 22.4943 0.978776 22.5493 1.0154C22.6225 1.07035 22.6775 1.16191 22.7507 1.19854C23.0804 1.34505 23.41 1.47325 23.758 1.61976C23.9411 1.69302 24.1243 1.78459 24.3074 1.87616C24.6371 2.04098 24.985 2.20581 25.2964 2.40726C25.5528 2.57208 25.5344 2.73691 25.3696 2.97499C25.278 3.10319 25.2231 3.26801 25.1682 3.43284C25.1498 3.50609 25.1498 3.57935 25.1132 3.63429C24.8751 4.00057 24.6371 4.36685 24.399 4.73312C24.2342 4.98952 24.051 5.20929 23.9045 5.48399C23.7031 5.8869 23.41 5.92353 22.9888 5.72207C22.7141 5.59388 22.4577 5.42905 22.183 5.33748C21.4321 5.08109 20.6813 4.84301 19.9304 4.64155C19.4909 4.53167 19.033 4.49504 18.5935 4.4401C18.5202 4.4401 18.447 4.47673 18.392 4.53167C18.3005 4.60493 18.2272 4.62324 18.1539 4.51336C18.1173 4.45842 18.0807 4.40347 18.0257 4.40347C17.2932 4.25696 16.5606 4.25696 15.8281 4.40347C15.7731 4.42179 15.6999 4.47673 15.6633 4.51336C15.5717 4.62324 15.4069 4.64155 15.297 4.54999C15.242 4.49504 15.1505 4.45842 15.0772 4.47673C14.4728 4.60493 13.8685 4.6965 13.2824 4.86132C12.6048 5.06277 11.9089 5.30086 11.2679 5.61219C10.517 5.97847 9.78449 6.39969 9.10688 6.87585C8.52083 7.29707 8.02636 7.82817 7.47694 8.32265C7.2938 8.48747 7.12898 8.6523 6.98247 8.83544C6.87258 8.96363 6.79933 9.12846 6.72607 9.27497C6.67113 9.36654 6.6345 9.47642 6.56125 9.56799C6.37811 9.78776 6.17665 10.0075 5.99352 10.2273C5.92026 10.3189 5.90195 10.4104 5.847 10.5203C5.75543 10.7035 5.64555 10.8683 5.55398 11.0514C5.48073 11.1796 5.42578 11.3261 5.35253 11.4543C5.27927 11.6191 5.1877 11.784 5.11445 11.9671C5.02288 12.1686 4.94962 12.37 4.87637 12.5715C4.76648 12.8462 4.63829 13.1209 4.5284 13.3956C4.47346 13.5787 4.41852 13.7619 4.40021 13.945C4.38189 14.2197 4.34526 14.4578 4.23538 14.7142C3.97899 15.2819 3.96067 15.8863 3.94236 16.509C3.92405 16.747 3.92405 17.0034 3.92405 17.2598Z" fill="#85DBB2"/>
    <path d="M37.6584 2.99336C37.6218 3.26807 37.4936 3.43289 37.3105 3.5794C36.9625 3.89074 36.5962 4.18376 36.2666 4.51341C35.9369 4.84306 35.6439 5.20934 35.3142 5.53899C35.0395 5.83201 34.7282 6.08841 34.4535 6.36311C34.2154 6.61951 33.9773 6.8759 33.7392 7.1323C33.6294 7.24218 33.5012 7.33375 33.3913 7.44363C33.1532 7.6634 32.9151 7.90148 32.6954 8.13956C32.5122 8.3227 32.3474 8.52415 32.1459 8.70729C31.7247 9.12851 31.2852 9.53142 30.864 9.93432C30.4427 10.3555 30.0032 10.7768 29.582 11.198C29.1241 11.6741 28.6846 12.1503 28.2268 12.6265C28.0803 12.773 27.9154 12.8829 27.7872 13.0294C27.3477 13.4689 26.9082 13.9268 26.4686 14.3846C26.0657 14.7692 25.6445 15.1355 25.2599 15.5201C24.8753 15.9047 24.5274 16.3259 24.1611 16.7105C24.0146 16.8753 23.8314 17.0035 23.6849 17.15C23.5384 17.2782 23.4102 17.4247 23.282 17.5712C23.1721 17.6811 23.0806 17.791 22.9707 17.8826C22.5861 18.2671 22.2015 18.6517 21.7803 18.9997C21.5605 19.1828 21.3957 19.4026 21.2492 19.6407C21.1393 19.8055 20.9561 19.9154 20.8096 20.0436C20.4617 20.3549 20.1137 20.6663 19.7657 20.9959C19.5643 21.1791 19.4178 21.4355 19.198 21.6003C18.8317 21.8933 18.6303 21.8384 18.3189 21.4904C18.0626 21.2157 17.7329 21.0142 17.5315 20.7029C17.1102 20.0985 16.4692 19.7139 15.9748 19.1828C15.9381 19.1279 15.8832 19.0913 15.8283 19.0363C15.2056 18.432 14.6012 17.8093 13.9786 17.2049C13.2826 16.509 12.5867 15.8131 11.8908 15.1172C11.8175 15.0439 11.7626 14.9706 11.6893 14.9157C11.2315 14.641 10.9568 14.1831 10.5905 13.8352C10.3707 13.6337 10.151 13.414 9.93118 13.2125C9.61985 12.9378 9.58322 12.6448 9.87624 12.3334C10.0411 12.1686 10.2242 12.0221 10.4073 11.8756C10.444 11.839 10.4806 11.8023 10.5172 11.7657C10.8835 11.3811 11.2498 10.9965 11.6344 10.6303C11.7809 10.4837 11.9457 10.3372 12.1105 10.209C12.1838 10.1541 12.3303 10.1175 12.3852 10.1541C12.6233 10.2823 12.8797 10.4105 13.0812 10.5936C13.3009 10.7768 13.4658 11.0698 13.7038 11.2346C14.2166 11.5826 14.5463 12.077 14.9492 12.5166C15.114 12.6814 15.2972 12.8462 15.462 13.0111C15.9381 13.4872 16.4143 13.9817 16.8905 14.4579C16.9637 14.5311 17.037 14.5861 17.1285 14.641C17.3483 14.7875 17.5131 14.9523 17.6596 15.1721C17.9344 15.5384 18.264 15.868 18.5937 16.1977C18.6486 16.2526 18.7951 16.2709 18.8684 16.2343C19.0698 16.1427 19.2346 16.0145 19.3628 15.8131C19.5094 15.575 19.7474 15.3736 19.9489 15.1721C20.48 14.641 21.0111 14.1099 21.5605 13.5788C22.1466 13.0111 22.7326 12.4433 23.3003 11.8756C24.0695 11.1064 24.8204 10.3189 25.5896 9.54973C26.0657 9.07357 26.5419 8.61572 27.018 8.13956C28.0619 7.09567 29.1058 6.07009 30.1497 5.00789C30.4611 4.69655 30.7358 4.34859 31.0471 4.01894C31.3218 3.72591 31.6515 3.48783 31.9262 3.21312C32.5305 2.60877 33.1166 1.98609 33.7026 1.36342C33.9224 1.14365 34.1605 0.923887 34.3802 0.70412C34.4352 0.649178 34.4901 0.594237 34.5267 0.520981C34.6916 0.246273 34.9297 0.173017 35.1677 0.37447C35.4424 0.594237 35.6622 0.868945 35.9186 1.10703C36.2299 1.41836 36.5413 1.7297 36.8526 2.02272C37.0357 2.20586 37.2372 2.389 37.4203 2.57214C37.5485 2.71865 37.6035 2.86516 37.6584 2.99336Z" fill="#85DBB2"/>
    <path d="M68.4815 17.6262V17.6445C68.976 18.1756 68.8661 18.8532 68.9028 19.4759C68.9394 20.1901 68.8661 20.8861 68.8295 21.6003C68.8295 21.6553 68.8295 21.7285 68.7929 21.7651C68.4815 22.3695 68.2251 22.9739 67.7124 23.45C67.5292 23.6148 67.3827 23.8163 67.2362 23.9994C66.8699 24.4573 66.3571 24.6587 65.8626 24.9151C65.2217 25.2448 64.544 25.4279 63.8481 25.5561C63.2804 25.6477 62.731 25.7576 62.1632 25.8125C61.8702 25.8491 61.5589 25.7759 61.2475 25.7209C60.863 25.6477 60.4784 25.5561 60.0938 25.4462C59.7458 25.3547 59.7275 25.3364 59.526 25.6294C59.3978 25.8125 59.2696 25.9957 59.1964 26.2154C59.0682 26.5634 59.2147 26.8747 59.3978 27.1677C59.7641 27.7355 60.3502 27.7355 60.8996 27.7538C62.5478 27.827 64.1961 27.8637 65.8626 27.9003C66.5952 27.9186 67.2911 28.0285 68.0054 28.1933C68.7379 28.3581 69.3606 28.7061 69.9833 29.0724C70.3312 29.2738 70.6243 29.6218 70.8623 29.9698C71.1554 30.4276 71.1737 30.9587 71.4118 31.4166C71.6132 31.8195 71.5949 32.2224 71.5766 32.6436C71.5766 32.7352 71.54 32.8451 71.5216 32.9366C71.3934 33.4128 71.2836 33.8889 71.1187 34.3651C71.0272 34.6398 70.8623 34.9145 70.6975 35.1526C70.5144 35.4273 70.2946 35.6837 70.0748 35.9218C69.5071 36.5628 68.7929 37.0206 68.042 37.4418C67.3094 37.8447 66.522 38.1195 65.7161 38.3392C63.8481 38.8703 61.9252 38.9619 60.0022 38.8337C59.4711 38.7971 58.9217 38.7604 58.4272 38.6139C57.713 38.4125 56.9987 38.2293 56.3394 37.8447C55.9915 37.6433 55.6252 37.4968 55.3138 37.2221C54.8194 36.8009 54.4714 36.3064 54.2516 35.702C54.1784 35.5006 54.1234 35.2991 54.0502 35.0977C53.8854 34.6032 53.8487 34.127 54.0685 33.6509C54.215 33.3395 54.27 32.9732 54.3981 32.6619C54.5813 32.2224 54.8377 31.8195 55.2406 31.5448C55.5702 31.3067 55.8999 31.032 56.2295 30.7939C56.3577 30.7023 56.3577 30.6291 56.2479 30.5009C55.9182 30.1529 55.5336 29.8233 55.2955 29.4204C54.856 28.6145 54.4714 27.7538 55.0025 26.8015C55.1307 26.5817 55.149 26.3253 55.2406 26.1055C55.3138 25.9224 55.3871 25.7209 55.5153 25.5561C55.79 25.2265 56.083 24.9334 56.3761 24.6221C56.6691 24.3108 56.6874 24.1276 56.3761 23.8346C56.0098 23.4867 55.6252 23.1204 55.3505 22.6992C55.0391 22.223 54.7644 21.7285 54.7095 21.1242C54.6912 20.8495 54.6179 20.5931 54.508 20.3367C54.3066 19.8239 54.3066 19.3294 54.4531 18.8166C54.5996 18.2855 54.6912 17.7361 54.9109 17.2416C55.1673 16.6739 55.2772 16.0512 55.7534 15.5934C56.083 15.282 56.4127 14.9524 56.7973 14.696C57.2734 14.348 57.7496 14.0001 58.2807 13.762C58.8484 13.5056 59.4711 13.3591 60.0755 13.1942C60.9912 12.9562 61.9435 13.0477 62.8775 13.1027C63.4269 13.1393 63.9763 13.3408 64.5257 13.4506C64.8371 13.5056 65.1484 13.5422 65.4597 13.5422C66.9249 13.5422 68.3717 13.5239 69.8368 13.5239C70.0382 13.5239 70.2397 13.5422 70.4594 13.5239C70.551 13.5239 70.6609 13.4873 70.7341 13.4323C70.8623 13.3774 70.899 13.414 70.9905 13.5239C71.2286 13.8352 71.1737 14.1832 71.1737 14.5312C71.1554 15.3919 71.1554 16.2527 71.1371 17.0951C71.1371 17.4614 71.0089 17.5896 70.6426 17.5713C70.1481 17.5713 69.6536 17.5346 69.1592 17.498C68.8844 17.4797 68.6281 17.5163 68.4815 17.6262ZM62.3464 35.409C62.3464 35.3907 62.3464 35.3541 62.3464 35.3357C63.0973 35.409 63.8298 35.2991 64.5257 35.0244C65.1484 34.7863 65.7528 34.5482 66.1374 33.9256C66.4853 33.3762 66.3022 32.552 65.6795 32.3506C65.2217 32.2041 64.7455 32.0759 64.2693 32.0576C63.0973 32.0026 61.9068 32.0209 60.7348 32.0026C60.3319 31.9843 59.9473 31.911 59.5444 31.8744C59.4528 31.8744 59.3246 31.8744 59.288 31.9294C59.0865 32.1858 58.9034 32.4421 58.7385 32.7169C58.647 32.8634 58.6103 33.0282 58.5554 33.1747C58.4638 33.3762 58.3906 33.5593 58.5554 33.7791C58.6836 33.9439 58.7385 34.1453 58.8301 34.3285C58.8667 34.4017 58.9217 34.4933 58.9949 34.5299C59.5444 34.768 60.0755 35.0427 60.6615 35.1892C61.1743 35.3174 61.7603 35.3357 62.3464 35.409ZM62.0534 22.4244C62.3098 22.4061 62.6577 22.4244 62.9324 22.2047C63.1156 22.0582 63.2804 21.8933 63.4635 21.7468C64.0496 21.2707 64.1595 20.5564 64.3975 19.9154C64.4159 19.8971 64.3975 19.8605 64.3975 19.8239C64.4342 19.1829 64.0862 18.6518 63.9397 18.0841C63.8115 17.6262 63.3903 17.3881 63.024 17.1317C62.4013 16.6922 61.5589 16.6373 60.863 17.0768C60.4967 17.2966 60.222 17.5713 59.9839 17.9375C59.7824 18.2489 59.6176 18.5419 59.6359 18.9265C59.6542 19.2195 59.5993 19.5308 59.5993 19.8239C59.581 20.2634 59.6542 20.7029 59.874 21.0875C59.9839 21.289 60.1121 21.5271 60.2952 21.6369C60.5333 21.8018 60.7348 21.9849 60.9912 22.1131C61.3025 22.3146 61.6138 22.4428 62.0534 22.4244Z" fill="#CFE6F2"/>
    <path d="M114.907 24.9333C114.907 26.8563 114.907 28.7976 114.907 30.7205C114.907 31.1967 114.743 31.3798 114.266 31.3798C113.204 31.3798 112.142 31.3982 111.08 31.3982C110.732 31.3982 110.604 31.2516 110.512 30.922C110.402 30.5191 110.256 30.1345 110.109 29.7499C110.054 29.6034 109.944 29.6217 109.853 29.695C109.56 29.933 109.303 30.1894 108.992 30.4092C108.626 30.6656 108.223 30.8487 107.82 31.0685C107.728 31.1234 107.618 31.1601 107.527 31.215C107.216 31.4348 106.849 31.5264 106.483 31.5996C106.135 31.6729 105.805 31.7827 105.457 31.8194C105.109 31.856 104.761 31.8743 104.413 31.8194C103.974 31.7644 103.534 31.6729 103.113 31.563C102.838 31.4897 102.564 31.3798 102.344 31.215C101.904 30.9403 101.428 30.6656 101.062 30.2993C100.513 29.7682 100.183 29.0906 99.9815 28.3397C99.89 27.9918 99.7434 27.6438 99.6336 27.2958C99.5969 27.186 99.5603 27.0578 99.542 26.9296C99.542 26.545 99.542 26.1604 99.5603 25.7575C99.5603 25.611 99.6519 25.4645 99.7068 25.3179C99.8167 24.915 99.9083 24.5121 100.036 24.1275C100.11 23.8895 100.275 23.688 100.366 23.4682C100.568 22.9554 100.989 22.6258 101.428 22.3511C101.502 22.2961 101.575 22.2595 101.648 22.2046C102.216 21.6368 102.893 21.2706 103.644 21.0508C103.864 20.9775 104.084 20.886 104.285 20.7944H104.304C104.413 20.5197 104.615 20.6479 104.816 20.6296C105.201 20.5746 105.586 20.4464 105.952 20.3366C106.172 20.2816 106.391 20.2084 106.611 20.1901C107.417 20.0802 108.241 19.9703 109.047 19.8604C109.102 19.8604 109.157 19.8421 109.212 19.8238C109.615 19.7139 109.651 19.6223 109.468 19.2744C109.248 18.8714 109.084 18.4319 108.717 18.1206C108.241 17.7177 107.728 17.443 107.087 17.4613C106.703 17.4796 106.3 17.4247 105.934 17.5162C105.384 17.6444 104.853 17.8459 104.34 18.0107C104.084 18.1023 103.809 18.1938 103.571 18.322C103.205 18.4869 102.857 18.6883 102.509 18.8715C102.179 19.0363 101.959 18.963 101.795 18.6151C101.685 18.3587 101.52 18.1389 101.392 17.9008C101.117 17.4063 100.824 16.9302 100.586 16.4357C100.476 16.1976 100.366 15.9412 100.366 15.6848C100.366 15.3735 100.586 15.1354 100.879 14.9889C101.41 14.7142 101.941 14.4578 102.472 14.2014C102.491 14.2014 102.509 14.2014 102.509 14.1831C102.6 13.945 102.765 13.9084 102.985 14.0183C103.003 14.0183 103.095 13.945 103.095 13.8901C103.15 13.7069 103.241 13.7069 103.388 13.7619C103.443 13.7802 103.534 13.7802 103.608 13.7619C103.864 13.6886 104.102 13.597 104.359 13.5238C104.633 13.4505 104.908 13.3956 105.183 13.304C106.007 13.0476 106.868 13.0293 107.728 13.0293C108.406 13.0293 109.084 13.011 109.743 13.1941C110.182 13.3223 110.622 13.4872 111.061 13.597C111.611 13.7252 112.032 14.1098 112.508 14.3662C112.765 14.5127 112.984 14.7508 113.168 14.9889C113.387 15.2636 113.607 15.5566 113.772 15.868C113.992 16.2526 114.211 16.6555 114.395 17.0584C114.523 17.3514 114.559 17.681 114.633 17.9924C114.669 18.1389 114.688 18.2854 114.761 18.4136C114.944 18.7433 114.944 19.0912 114.944 19.4575C114.889 21.3072 114.889 23.1203 114.907 24.9333ZM109.651 24.8052C109.67 24.8052 109.67 24.8052 109.688 24.8052C109.67 24.4022 109.651 23.9993 109.615 23.5964C109.578 23.2118 109.34 23.0653 108.974 23.1569C108.589 23.2485 108.186 23.34 107.802 23.4499C107.582 23.5049 107.362 23.5964 107.142 23.6697C106.758 23.8162 106.336 23.8345 106.007 24.0909C105.824 24.2557 105.622 24.4022 105.457 24.5854C105.091 24.9517 104.761 25.3363 104.761 25.904C104.761 26.2153 104.743 26.5267 104.963 26.7647C105.311 27.1493 105.769 27.3691 106.245 27.5339C106.703 27.6804 107.161 27.4973 107.563 27.3691C108.003 27.2226 108.424 26.9662 108.827 26.7281C109.267 26.4534 109.56 26.0322 109.633 25.5194C109.688 25.2813 109.651 25.0432 109.651 24.8052Z" fill="#CFE6F2"/>
    <path d="M43.8124 24.5122C43.8124 22.4976 43.8124 20.4648 43.8124 18.4503C43.8124 18.3587 43.8124 18.2671 43.8124 18.1572C43.7941 17.8093 43.6659 17.7177 43.318 17.7543C42.8784 17.7726 42.4572 17.791 42.0177 17.791C41.6514 17.791 41.5049 17.6078 41.5049 17.2599C41.5049 16.2892 41.5049 15.3186 41.5232 14.3296C41.5232 13.7985 41.6697 13.6703 42.2008 13.652C42.4572 13.652 42.6953 13.652 42.9517 13.652C43.0982 13.652 43.263 13.6337 43.4095 13.6154C43.7575 13.5605 43.8307 13.4689 43.8307 13.1209C43.8307 12.6814 43.8124 12.2602 43.8307 11.8206C43.8307 11.6375 43.904 11.4727 43.9589 11.2895C44.1055 10.7401 44.2886 10.1907 44.3252 9.60465C44.3435 9.43983 44.4534 9.275 44.545 9.11018C44.8014 8.65233 45.0578 8.19448 45.3325 7.75495C45.4424 7.59012 45.5889 7.46193 45.7537 7.33373C46.3764 6.87588 46.9807 6.41803 47.7133 6.14332C48.0063 6.03344 48.3177 5.9785 48.629 5.90524C48.6656 5.90524 48.7022 5.90524 48.7206 5.88693C48.9586 5.61222 49.27 5.81367 49.5447 5.77705C49.8377 5.7221 50.149 5.66716 50.4421 5.68548C51.3944 5.75873 52.3284 5.86862 53.2441 6.12501C53.4089 6.17995 53.5554 6.23489 53.7203 6.28984C54.1415 6.45466 54.1964 6.67443 54.0682 7.1689C53.995 7.48024 53.8485 7.79157 53.7203 8.0846C53.7019 8.10291 53.6836 8.13954 53.6836 8.15785C53.7203 8.85378 53.2624 9.4032 53.1708 10.0625C53.1525 10.2273 53.0243 10.3372 52.8595 10.3189C52.6214 10.3006 52.3833 10.2823 52.1453 10.2273C51.8522 10.1724 51.5592 10.0625 51.2662 10.0259C50.8816 9.97093 50.552 10.0991 50.2406 10.3189C49.7828 10.6669 49.4348 11.0698 49.3799 11.6924C49.3432 12.1686 49.2883 12.6264 49.2517 13.1026C49.2334 13.3041 49.3982 13.4506 49.6363 13.4689C49.911 13.4872 50.1857 13.4689 50.4787 13.4689C50.9365 13.4689 51.3944 13.4506 51.8705 13.4689C52.2735 13.4689 52.4383 13.6887 52.4017 14.1099C52.365 14.4945 52.3284 14.8607 52.3284 15.2453C52.3284 15.7947 52.365 16.3442 52.3833 16.8936C52.4017 17.1683 52.42 17.443 52.1453 17.6261C52.0354 17.6994 51.8889 17.7543 51.7607 17.7543C51.1197 17.7543 50.4787 17.736 49.8377 17.7177C49.5813 17.7177 49.4348 17.8093 49.4348 18.0474C49.4348 18.4319 49.4897 18.7982 49.4897 19.1828C49.4897 19.3476 49.4348 19.5125 49.4348 19.6773C49.4165 20.1535 49.4165 20.6479 49.4165 21.1241C49.3799 23.4133 49.3432 25.7209 49.3066 28.0101C49.3066 28.1749 49.3615 28.3215 49.3615 28.4863C49.3615 28.8159 49.3249 29.1456 49.3066 29.4752C49.2883 29.7683 49.3066 30.043 49.2883 30.336C49.27 30.5557 49.27 30.7755 49.1784 30.977C49.0502 31.27 48.8121 31.3799 48.4642 31.3799C47.4386 31.3616 46.4313 31.3616 45.4057 31.3616C45.0395 31.3616 44.6549 31.3432 44.2886 31.3432C43.9223 31.3432 43.7575 31.1601 43.7575 30.7938C43.7575 29.1822 43.7575 27.5889 43.7575 25.9773C43.8124 25.5011 43.8124 25.0066 43.8124 24.5122Z" fill="#CFE6F2"/>
    <path d="M125.419 12.9927C126.042 13.0476 126.664 13.1026 127.287 13.1941C127.58 13.2308 127.855 13.3406 128.129 13.4322C128.239 13.4688 128.349 13.5055 128.459 13.4139C128.496 13.3773 128.66 13.4139 128.66 13.4322C128.715 13.7435 129.008 13.7069 129.192 13.8168C129.448 13.9816 129.741 14.0549 129.997 14.2014C130.419 14.4395 130.858 14.6776 131.261 14.9523C131.737 15.2636 131.737 15.5383 131.371 16.0511C131.06 16.5089 130.675 16.9118 130.327 17.3514C130.29 17.4063 130.235 17.4613 130.217 17.5345C130.126 17.8275 129.924 18.0473 129.704 18.2488C129.43 18.5052 129.027 18.5418 128.697 18.3403C128.276 18.0656 127.836 17.7726 127.378 17.5711C127.049 17.4063 126.646 17.3697 126.28 17.2781C126.06 17.2232 125.858 17.1499 125.639 17.1316C125.144 17.095 124.65 17.2049 124.265 17.5162C124.027 17.6993 123.862 17.9741 123.697 18.2305C123.551 18.4685 123.697 18.7249 123.844 18.9264C124.357 19.604 125.126 19.897 125.895 20.1534C126.28 20.2816 126.664 20.4647 127.049 20.6113C127.232 20.6845 127.433 20.7211 127.617 20.8127C128.203 21.0874 128.789 21.3621 129.356 21.6735C130.126 22.0764 130.712 22.6807 131.206 23.3767C131.426 23.688 131.536 24.0909 131.682 24.4572C131.719 24.5487 131.774 24.6403 131.792 24.7502C131.865 25.0066 131.939 25.2447 131.975 25.5011C132.012 25.7941 131.975 26.0871 131.994 26.3801C132.03 26.8929 131.92 27.3874 131.646 27.8269C131.609 27.8819 131.572 27.9368 131.572 27.9918C131.462 28.706 130.968 29.1822 130.547 29.6766C129.997 30.3176 129.301 30.7388 128.532 31.0868C127.781 31.4348 126.994 31.6362 126.206 31.7644C125.181 31.9476 124.137 32.0025 123.111 31.7644C122.617 31.6545 122.104 31.563 121.61 31.4348C121.317 31.3615 121.024 31.2333 120.749 31.1051C120.181 30.8487 119.595 30.6106 119.046 30.3176C118.679 30.1162 118.35 29.8048 118.02 29.5301C117.8 29.3287 117.8 29.1822 117.965 28.9441C118.222 28.5595 118.496 28.1932 118.771 27.8086C118.789 27.772 118.826 27.7354 118.844 27.6987C118.954 27.2409 119.284 26.9479 119.577 26.6182C119.687 26.49 119.778 26.3435 119.888 26.197C120.016 26.0139 120.199 25.9589 120.383 26.0322C120.511 26.0871 120.676 26.1421 120.767 26.2519C121.152 26.6915 121.701 26.838 122.196 27.0944C122.36 27.1859 122.525 27.2775 122.69 27.3325C123.038 27.4423 123.386 27.5522 123.734 27.6255C123.844 27.6438 123.954 27.5705 124.082 27.5522C124.174 27.5522 124.283 27.5522 124.375 27.5889C124.485 27.6255 124.576 27.717 124.668 27.717C125.053 27.6987 125.456 27.717 125.822 27.6072C126.353 27.4423 126.738 27.0577 126.902 26.5083C126.921 26.4534 126.921 26.3618 126.902 26.3252C126.738 26.0139 126.628 25.6659 126.298 25.4828C126.17 25.4095 126.078 25.3179 125.968 25.2264C125.565 24.8418 125.034 24.7502 124.558 24.5304C124.192 24.3656 123.826 24.2557 123.459 24.0909C122.782 23.7979 122.104 23.5049 121.463 23.1569C121.079 22.9554 120.694 22.699 120.364 22.4243C120.09 22.1863 119.87 21.8749 119.632 21.5819C119.504 21.4171 119.375 21.2522 119.229 21.0874C118.954 20.7395 118.863 20.3365 118.789 19.9153C118.771 19.7322 118.753 19.549 118.679 19.3842C118.496 18.9081 118.533 18.4685 118.716 17.9924C118.844 17.6444 118.863 17.2598 118.936 16.9118C118.991 16.6921 119.009 16.4723 119.119 16.2892C119.394 15.7398 119.797 15.3002 120.236 14.8973C120.859 14.3113 121.591 13.9084 122.36 13.6153C123.349 13.2491 124.375 12.9927 125.456 13.1209C125.419 13.0293 125.419 13.011 125.419 12.9927Z" fill="#CFE6F2"/>
    <path d="M91.0801 16.3441C91.1167 16.3075 91.1167 16.3075 91.1167 16.3075C91.2449 15.5383 91.8126 15.0804 92.362 14.6226C92.6184 14.4028 92.8748 14.183 93.1312 13.9633C93.4426 13.7069 93.8088 13.5787 94.1568 13.4139C94.9443 13.0293 95.7867 12.9377 96.6292 13.011C97.087 13.0476 97.5449 13.1575 97.9295 13.4139C98.1859 13.5787 98.1859 13.7069 98.076 13.9816C97.9661 14.3112 97.8745 14.6775 97.8562 15.0255C97.8379 15.3735 97.7463 15.6848 97.6548 16.0328C97.5266 16.454 97.4533 16.8935 97.4167 17.333C97.3617 17.8641 97.1786 18.0656 96.6475 18.029C96.446 18.0107 96.2446 17.9923 96.0431 17.9374C95.4388 17.7543 94.8344 17.8458 94.2667 18.0839C93.9004 18.2304 93.5158 18.3586 93.1862 18.5601C92.9115 18.7249 92.6734 18.9447 92.4902 19.2011C92.1606 19.6772 91.8859 20.19 91.5929 20.6845C91.4647 20.9043 91.3914 21.1423 91.3914 21.417C91.3914 24.5121 91.3914 27.6255 91.3914 30.7205C91.3914 31.215 91.2449 31.3798 90.7504 31.3798C89.3952 31.3798 88.0583 31.3798 86.703 31.3981C86.2635 31.3981 85.9156 31.16 85.9522 30.5557C85.9705 30.4092 85.9522 30.2627 85.9522 30.1161C85.8972 25.0432 85.8606 19.9702 85.8057 14.8973C85.8057 14.6226 85.824 14.3479 85.8423 14.0732C85.8606 13.7618 86.117 13.5604 86.465 13.5421C86.8862 13.5238 87.3074 13.5237 87.7469 13.5237C88.4429 13.5237 89.1205 13.5237 89.8164 13.5237C90.2743 13.5237 90.4574 13.7435 90.494 14.2014C90.5307 14.5493 90.6039 14.8973 90.6772 15.2636C90.7138 15.4284 90.7138 15.5932 90.7504 15.758C90.8237 15.9595 90.8603 16.1976 91.0801 16.3441Z" fill="#CFE6F2"/>
    <path d="M77.8763 24.2742C76.7042 24.2742 75.5322 24.2742 74.3601 24.2742C74.3051 24.2742 74.2502 24.2742 74.2136 24.2742C73.5726 24.2559 73.3162 23.9812 73.2979 23.3585C73.2979 22.6992 73.2612 22.0216 73.2795 21.3623C73.2979 21.0876 73.3894 20.7945 73.4993 20.5565C73.5543 20.4283 73.7374 20.3001 73.8839 20.2818C74.6165 20.1352 75.3673 20.1902 76.1182 20.2451C76.7042 20.2818 77.3086 20.2818 77.8946 20.2634C78.792 20.2451 79.6711 20.2085 80.5685 20.2085C81.0263 20.2085 81.4659 20.2451 81.9237 20.2818C82.2167 20.3184 82.3266 20.4649 82.3266 20.7579C82.3266 21.6736 82.3266 22.6076 82.3266 23.5233C82.3266 24.0361 82.0702 24.2742 81.5574 24.2742C80.3304 24.2559 79.1034 24.2559 77.8763 24.2742Z" fill="#CFE6F2"/>
    </svg>